<svg width="404" height="588" viewBox="0 0 404 588" fill="none" xmlns="http://www.w3.org/2000/svg">
<g opacity="0.2">
<path d="M34.3144 135.936L26.685 140.388L25.2553 137.781L32.8847 133.33L34.3144 135.936Z" fill="#E0FE10" fill-opacity="0.42"/>
<path d="M37.7303 139.104L33.9158 141.33L41.0642 154.362L44.8788 152.137L46.3086 154.743L36.136 160.678L34.7064 158.072L38.5211 155.846L31.3726 142.814L27.5579 145.039L26.1282 142.433L36.3007 136.498L37.7303 139.104Z" fill="#E0FE10" fill-opacity="0.42"/>
<path d="M30.3415 134.814L28.9118 132.207L26.3687 133.691L27.7983 136.297L30.3415 134.814Z" fill="#E0FE10" fill-opacity="0.42"/>
<path d="M45.7519 156.788L38.1224 161.24L39.5521 163.846L47.1815 159.395L45.7519 156.788Z" fill="#E0FE10" fill-opacity="0.42"/>
<path d="M44.6385 160.878L46.0681 163.485L43.525 164.969L42.0954 162.362L44.6385 160.878Z" fill="#E0FE10" fill-opacity="0.42"/>
</g>
<g opacity="0.2" clip-path="url(#clip0_7_303)">
<path d="M352.893 104.985L359.783 110.513L357.862 112.782L350.972 107.254L352.893 104.985Z" fill="#E0FE10" fill-opacity="0.42"/>
<path d="M354.626 100.661L358.071 103.425L367.676 92.0806L364.231 89.317L366.152 87.0481L375.339 94.418L373.418 96.6868L369.973 93.923L360.368 105.267L363.813 108.031L361.892 110.3L352.705 102.93L354.626 100.661Z" fill="#E0FE10" fill-opacity="0.42"/>
<path d="M353.269 109.097L351.348 111.366L353.644 113.208L355.565 110.939L353.269 109.097Z" fill="#E0FE10" fill-opacity="0.42"/>
<path d="M368.261 86.835L375.151 92.3625L377.072 90.0936L370.182 84.5662L368.261 86.835Z" fill="#E0FE10" fill-opacity="0.42"/>
<path d="M372.479 86.4085L374.4 84.1398L376.696 85.9823L374.775 88.251L372.479 86.4085Z" fill="#E0FE10" fill-opacity="0.42"/>
</g>
<g opacity="0.2" clip-path="url(#clip1_7_303)">
<path d="M15.7646 28.1373L10.8587 35.4826L8.4311 33.7667L13.337 26.4214L15.7646 28.1373Z" fill="#E0FE10" fill-opacity="0.42"/>
<path d="M20.2234 29.487L17.7706 33.1596L29.9087 41.7394L32.3616 38.0668L34.7892 39.7827L28.248 49.5767L25.8204 47.8607L28.2734 44.1879L16.1353 35.6081L13.6823 39.2808L11.2547 37.5649L17.7959 27.771L20.2234 29.487Z" fill="#E0FE10" fill-opacity="0.42"/>
<path d="M11.7016 28.8698L9.27397 27.1538L7.63871 29.6024L10.0663 31.3183L11.7016 28.8698Z" fill="#E0FE10" fill-opacity="0.42"/>
<path d="M35.1853 41.8649L30.2794 49.2104L32.707 50.9263L37.6129 43.5809L35.1853 41.8649Z" fill="#E0FE10" fill-opacity="0.42"/>
<path d="M35.9777 46.0293L38.4053 47.7453L36.77 50.1938L34.3424 48.4778L35.9777 46.0293Z" fill="#E0FE10" fill-opacity="0.42"/>
</g>
<g opacity="0.2">
<path d="M64.4108 430.392L59.2487 423.224L61.7062 421.551L66.8683 428.719L64.4108 430.392Z" fill="#E0FE10" fill-opacity="0.42"/>
<path d="M61.5851 434.096L59.0041 430.512L46.7167 438.877L49.2977 442.461L46.8403 444.134L39.9574 434.577L42.4149 432.904L44.996 436.488L57.2833 428.123L54.7022 424.539L57.1597 422.866L64.0426 432.423L61.5851 434.096Z" fill="#E0FE10" fill-opacity="0.42"/>
<path d="M65.1476 426.33L67.6051 424.657L65.8843 422.268L63.4268 423.941L65.1476 426.33Z" fill="#E0FE10" fill-opacity="0.42"/>
<path d="M44.7513 443.775L39.5891 436.608L37.1317 438.281L42.2938 445.448L44.7513 443.775Z" fill="#E0FE10" fill-opacity="0.42"/>
<path d="M40.5731 443.059L38.1157 444.732L36.3949 442.343L38.8524 440.67L40.5731 443.059Z" fill="#E0FE10" fill-opacity="0.42"/>
</g>
<g opacity="0.2">
<path d="M338.235 32.0974L345.745 27.4479L347.242 30.016L339.732 34.6656L338.235 32.0974Z" fill="#E0FE10" fill-opacity="0.42"/>
<path d="M334.737 29.0202L338.492 26.6955L331.005 13.8545L327.25 16.1793L325.752 13.6112L335.766 7.41166L337.263 9.97982L333.508 12.3047L340.995 25.1455L344.751 22.8208L346.248 25.3889L336.234 31.5884L334.737 29.0202Z" fill="#E0FE10" fill-opacity="0.42"/>
<path d="M342.236 33.1158L343.733 35.684L346.236 34.134L344.739 31.5659L342.236 33.1158Z" fill="#E0FE10" fill-opacity="0.42"/>
<path d="M326.255 11.5522L333.766 6.90254L332.268 4.33438L324.758 8.98401L326.255 11.5522Z" fill="#E0FE10" fill-opacity="0.42"/>
<path d="M327.261 7.43415L325.764 4.86598L328.267 3.31611L329.765 5.88426L327.261 7.43415Z" fill="#E0FE10" fill-opacity="0.42"/>
</g>
<g opacity="0.2" clip-path="url(#clip2_7_303)">
<path d="M220.979 575.223L226.076 568.009L228.458 569.787L223.361 577.002L220.979 575.223Z" fill="#E0FE10" fill-opacity="0.42"/>
<path d="M216.557 573.757L219.105 570.15L207.196 561.255L204.648 564.862L202.266 563.084L209.061 553.464L211.443 555.243L208.895 558.85L220.804 567.745L223.352 564.138L225.734 565.917L218.939 575.536L216.557 573.757Z" fill="#E0FE10" fill-opacity="0.42"/>
<path d="M225.06 574.597L227.442 576.376L229.141 573.971L226.759 572.192L225.06 574.597Z" fill="#E0FE10" fill-opacity="0.42"/>
<path d="M201.924 560.992L207.021 553.777L204.639 551.998L199.543 559.213L201.924 560.992Z" fill="#E0FE10" fill-opacity="0.42"/>
<path d="M201.241 556.808L198.86 555.029L200.558 552.624L202.94 554.403L201.241 556.808Z" fill="#E0FE10" fill-opacity="0.42"/>
</g>
<g opacity="0.2" clip-path="url(#clip3_7_303)">
<path d="M44.9574 565.716L53.7903 565.753L53.6993 568.724L44.8664 568.687L44.9574 565.716Z" fill="#E0FE10" fill-opacity="0.42"/>
<path d="M43.6219 561.253L48.0383 561.271L48.4934 546.414L44.077 546.396L44.168 543.424L55.9454 543.473L55.8543 546.444L51.4377 546.426L50.9826 561.283L55.3991 561.302L55.3081 564.273L43.5308 564.224L43.6219 561.253Z" fill="#E0FE10" fill-opacity="0.42"/>
<path d="M47.8108 568.7L47.7197 571.671L50.6641 571.683L50.7551 568.712L47.8108 568.7Z" fill="#E0FE10" fill-opacity="0.42"/>
<path d="M45.6857 541.945L54.5187 541.981L54.6097 539.01L45.7767 538.973L45.6857 541.945Z" fill="#E0FE10" fill-opacity="0.42"/>
<path d="M48.7209 538.985L48.812 536.014L51.7563 536.026L51.6653 538.997L48.7209 538.985Z" fill="#E0FE10" fill-opacity="0.42"/>
</g>
<g opacity="0.2" clip-path="url(#clip4_7_303)">
<path d="M48.6209 316.777L53.2674 309.265L55.7534 310.895L51.1069 318.407L48.6209 316.777Z" fill="#E0FE10" fill-opacity="0.42"/>
<path d="M44.1176 315.584L46.4408 311.828L34.0107 303.677L31.6875 307.433L29.2014 305.802L35.3969 295.786L37.8828 297.416L35.5595 301.173L47.9896 309.323L50.313 305.567L52.799 307.198L46.6036 317.214L44.1176 315.584Z" fill="#E0FE10" fill-opacity="0.42"/>
<path d="M52.6558 315.903L55.1419 317.533L56.6907 315.029L54.2047 313.399L52.6558 315.903Z" fill="#E0FE10" fill-opacity="0.42"/>
<path d="M28.7329 303.735L33.3795 296.223L30.8934 294.593L26.2469 302.105L28.7329 303.735Z" fill="#E0FE10" fill-opacity="0.42"/>
<path d="M27.7956 299.601L25.3097 297.971L26.8585 295.467L29.3444 297.097L27.7956 299.601Z" fill="#E0FE10" fill-opacity="0.42"/>
</g>
<g opacity="0.2">
<path d="M121.411 88.392L116.249 81.2244L118.706 79.5515L123.868 86.7191L121.411 88.392Z" fill="#E0FE10" fill-opacity="0.42"/>
<path d="M118.585 92.0958L116.004 88.5121L103.717 96.8768L106.298 100.461L103.84 102.134L96.9574 92.5767L99.4149 90.9038L101.996 94.4877L114.283 86.123L111.702 82.5391L114.16 80.8662L121.043 90.423L118.585 92.0958Z" fill="#E0FE10" fill-opacity="0.42"/>
<path d="M122.148 84.3298L124.605 82.6569L122.884 80.2677L120.427 81.9406L122.148 84.3298Z" fill="#E0FE10" fill-opacity="0.42"/>
<path d="M101.751 101.775L96.5891 94.6077L94.1317 96.2807L99.2938 103.448L101.751 101.775Z" fill="#E0FE10" fill-opacity="0.42"/>
<path d="M97.5731 101.059L95.1157 102.732L93.3949 100.343L95.8524 98.67L97.5731 101.059Z" fill="#E0FE10" fill-opacity="0.42"/>
</g>
<g opacity="0.2" clip-path="url(#clip5_7_303)">
<path d="M388.138 211.93L393.902 205.238L396.103 207.237L390.338 213.929L388.138 211.93Z" fill="#E0FE10" fill-opacity="0.42"/>
<path d="M383.877 210.047L386.759 206.701L375.757 196.706L372.875 200.052L370.674 198.053L378.36 189.129L380.561 191.128L377.678 194.475L388.68 204.47L391.563 201.124L393.763 203.123L386.077 212.046L383.877 210.047Z" fill="#E0FE10" fill-opacity="0.42"/>
<path d="M392.26 211.698L394.46 213.697L396.382 211.466L394.181 209.467L392.26 211.698Z" fill="#E0FE10" fill-opacity="0.42"/>
<path d="M370.535 195.938L376.299 189.245L374.099 187.246L368.335 193.939L370.535 195.938Z" fill="#E0FE10" fill-opacity="0.42"/>
<path d="M370.256 191.708L368.056 189.709L369.977 187.478L372.177 189.477L370.256 191.708Z" fill="#E0FE10" fill-opacity="0.42"/>
</g>
<g opacity="0.2">
<path d="M349.201 306.976L355.084 313.565L352.814 315.486L346.931 308.897L349.201 306.976Z" fill="#E0FE10" fill-opacity="0.42"/>
<path d="M351.624 302.997L354.565 306.292L365.911 296.688L362.969 293.394L365.238 291.473L373.083 300.258L370.813 302.179L367.872 298.885L356.526 308.488L359.468 311.782L357.199 313.703L349.354 304.918L351.624 302.997Z" fill="#E0FE10" fill-opacity="0.42"/>
<path d="M348.892 311.093L346.623 313.014L348.584 315.21L350.853 313.289L348.892 311.093Z" fill="#E0FE10" fill-opacity="0.42"/>
<path d="M367.353 291.611L373.237 298.2L375.506 296.279L369.623 289.691L367.353 291.611Z" fill="#E0FE10" fill-opacity="0.42"/>
<path d="M371.584 291.887L373.853 289.966L375.814 292.162L373.545 294.083L371.584 291.887Z" fill="#E0FE10" fill-opacity="0.42"/>
</g>
<g opacity="0.2">
<path d="M348.216 420.883L355.338 415.659L357.033 418.101L349.911 423.326L348.216 420.883Z" fill="#E0FE10" fill-opacity="0.42"/>
<path d="M344.488 418.09L348.049 415.478L339.577 403.264L336.016 405.876L334.322 403.433L343.818 396.467L345.513 398.91L341.951 401.522L350.423 413.736L353.984 411.124L355.678 413.567L346.182 420.533L344.488 418.09Z" fill="#E0FE10" fill-opacity="0.42"/>
<path d="M352.285 421.584L353.979 424.027L356.353 422.286L354.659 419.843L352.285 421.584Z" fill="#E0FE10" fill-opacity="0.42"/>
<path d="M334.662 401.341L341.784 396.117L340.09 393.674L332.968 398.898L334.662 401.341Z" fill="#E0FE10" fill-opacity="0.42"/>
<path d="M335.341 397.157L333.647 394.714L336.021 392.973L337.716 395.415L335.341 397.157Z" fill="#E0FE10" fill-opacity="0.42"/>
</g>
<g opacity="0.2" clip-path="url(#clip6_7_303)">
<path d="M354.135 552.458L357.549 544.312L360.259 545.533L356.845 553.679L354.135 552.458Z" fill="#E0FE10" fill-opacity="0.42"/>
<path d="M349.5 551.984L351.207 547.911L337.655 541.805L335.948 545.878L333.238 544.657L337.79 533.795L340.5 535.016L338.793 539.089L352.345 545.195L354.052 541.122L356.763 542.343L352.211 553.205L349.5 551.984Z" fill="#E0FE10" fill-opacity="0.42"/>
<path d="M357.983 550.964L360.694 552.185L361.832 549.469L359.121 548.248L357.983 550.964Z" fill="#E0FE10" fill-opacity="0.42"/>
<path d="M332.451 542.688L335.866 534.542L333.155 533.32L329.741 541.467L332.451 542.688Z" fill="#E0FE10" fill-opacity="0.42"/>
<path d="M330.879 538.752L328.169 537.53L329.307 534.815L332.017 536.036L330.879 538.752Z" fill="#E0FE10" fill-opacity="0.42"/>
</g>
<defs>
<clipPath id="clip0_7_303">
<rect width="36" height="35" fill="white" transform="translate(386.044 110.727) rotate(164.5)"/>
</clipPath>
<clipPath id="clip1_7_303">
<rect width="36" height="35" fill="white" transform="translate(12.9341 61.6625) rotate(-110.5)"/>
</clipPath>
<clipPath id="clip2_7_303">
<rect width="36" height="35" fill="white" transform="translate(224.686 541.783) rotate(71)"/>
</clipPath>
<clipPath id="clip3_7_303">
<rect width="36" height="35" fill="white" transform="translate(74.4759 549.573) rotate(126)"/>
</clipPath>
<clipPath id="clip4_7_303">
<rect width="36" height="35" fill="white" transform="translate(50.2797 283.173) rotate(67.5)"/>
</clipPath>
<clipPath id="clip5_7_303">
<rect width="36" height="35" fill="white" transform="translate(395.033 179) rotate(76.5)"/>
</clipPath>
<clipPath id="clip6_7_303">
<rect width="36" height="35" fill="white" transform="translate(350.516 519.009) rotate(58.5)"/>
</clipPath>
</defs>
</svg>
