<svg width="454" height="448" viewBox="0 0 454 448" fill="none" xmlns="http://www.w3.org/2000/svg">
<g filter="url(#filter0_d_335_91)">
<path fill-rule="evenodd" clip-rule="evenodd" d="M382.257 94.4765C387.595 73.6993 370.035 54.1962 348.813 57.3335L75.6455 97.7177C51.9656 101.218 41.7214 129.68 57.7386 147.469L205.662 311.755C206.051 309.091 206.184 308.763 207.62 305.914C209.152 302.872 209.199 302.756 209.268 300.712C209.384 297.926 209.408 297.833 210.499 296.393C210.837 295.94 211.079 295.628 211.201 295.275C211.496 294.418 211.081 293.316 209.617 289.334C208.525 286.339 206.9 282.763 203.835 276.61L199.586 268.065L195.685 264.187C191.529 260.03 189.997 258.173 188.789 255.781C186.932 252.089 185.307 246.098 184.958 241.617C184.494 235.858 184.239 233.606 184.03 233.397C183.89 233.258 182.66 233.397 180.872 233.722C176.089 234.604 171.584 234.163 165.037 232.189C161.531 231.144 157.7 229.264 152.893 226.222C149.248 223.923 147.692 223.11 143.629 221.438C140.82 220.254 139.612 219.511 139.194 218.698C138.591 217.514 138.312 217.236 136.78 216.562C135.688 216.051 135.294 215.749 135.061 215.169C134.643 214.194 134.876 212.893 135.735 211.268C136.129 210.525 136.431 209.619 136.431 209.132C136.431 207.274 138.173 202.05 139.589 199.635C140.448 198.172 143.583 194.062 145.556 191.809C147.692 189.395 154.728 181.987 157.607 179.154C159.534 177.274 159.929 176.74 160.323 175.579C161.206 173.024 162.599 171.747 165.153 171.143C166.569 170.795 167.567 170.749 171.19 170.865C175.996 170.981 177.319 171.236 181.22 172.746C183.008 173.442 183.681 173.582 185.121 173.582C187.141 173.582 187.443 173.721 188.302 174.952C188.882 175.787 188.998 175.857 189.509 175.625C190.183 175.3 190.6 175.602 191.297 176.925C191.761 177.808 191.808 178.156 191.738 181.685C191.692 184.611 191.599 185.656 191.32 186.283C190.554 187.885 187.721 189.604 185.817 189.604C184.053 189.604 181.383 188.698 179.688 187.537C178.318 186.608 178.109 186.353 178.039 185.656C177.946 184.727 177.691 184.495 176.692 184.495C176.182 184.495 175.485 184.124 174.371 183.288C172.699 182.011 171.468 181.453 170.748 181.662C170.516 181.709 170.075 182.057 169.75 182.428C168.984 183.357 166.058 188.582 165.687 189.696C165.339 190.741 165.315 192.576 165.547 195.409C165.687 196.964 165.64 197.963 165.246 200.192C164.665 203.489 164.665 203.559 165.06 204.07C165.315 204.395 165.478 204.418 166.732 204.116C167.498 203.93 169.17 203.768 170.47 203.768C174.022 203.768 175.949 204.464 179.293 206.972C180.315 207.738 181.359 208.412 181.661 208.505C181.94 208.598 182.729 208.528 183.426 208.319C189.161 206.647 196.428 206.16 199.795 207.228C203.51 208.389 206.575 209.852 210.244 212.243C212.496 213.706 213.703 214.147 215.955 214.333C217.557 214.449 217.906 214.426 218.533 214.008C219.392 213.474 220.135 212.545 221.179 210.664L221.922 209.317L218.579 209.48L215.212 209.643L214.26 208.783C213.75 208.296 213.192 207.553 213.03 207.088C212.705 206.09 212.844 204.557 213.378 203.536C213.866 202.537 213.842 202.421 213.192 202.119C212.403 201.748 212.124 200.981 212.356 199.913C212.472 199.426 212.589 198.358 212.612 197.522L212.681 195.989L211.846 195.594C211.381 195.362 210.94 194.967 210.847 194.712C210.708 194.271 211.428 192.808 213.424 189.441C213.842 188.721 213.842 188.698 213.332 187.63C212.519 185.935 212.612 185.54 214.33 183.891C215.7 182.545 215.862 182.289 216.42 180.432C216.861 178.992 217.279 178.156 217.859 177.506L218.695 176.6L218.161 175.579C217.836 174.998 217.673 174.418 217.766 174.185C218.022 173.535 219.949 172.839 221.969 172.676C223.617 172.56 223.966 172.444 224.778 171.794C225.707 171.051 226.961 170.725 229.77 170.47C231.79 170.284 239.197 170.563 240.799 170.888C244.863 171.701 247.858 173.14 250.296 175.439C252.316 177.366 253.477 178.992 253.941 180.548C254.104 181.128 254.847 182.475 255.59 183.566C257.261 186.028 257.633 187.49 256.96 188.977C256.634 189.696 256.565 190.3 256.634 191.252C256.797 193.017 256.193 195.2 255.079 196.941C254.452 197.893 254.15 198.613 254.15 199.147C254.15 200.053 253.593 200.68 251.48 202.189C248.763 204.163 248.113 205.44 247.951 209.248C247.858 211.059 247.904 212.22 248.067 212.522C248.461 213.265 254.289 217.677 255.659 218.28C258.004 219.325 260.117 219.256 265.295 217.979C267.385 217.468 268.221 217.375 271.216 217.398C274.646 217.398 274.721 217.421 277.981 218.417L278.065 218.443C283.545 220.138 287.794 221.229 288.374 221.09C288.653 221.02 289.814 220.277 290.905 219.465C293.274 217.723 294.365 217.375 296.664 217.7C298.591 217.979 301.4 218.907 303.652 220.045C304.651 220.556 305.51 220.951 305.579 220.951C305.649 220.951 305.696 220.602 305.696 220.185C305.696 218.652 306.462 214.96 307.483 211.663C309.364 205.486 309.527 204.046 308.598 201.539C307.739 199.24 307.576 198.961 306.81 198.636C306.23 198.404 305.997 198.404 305.371 198.729C304.953 198.938 303.583 199.193 302.05 199.333C300.123 199.495 299.218 199.681 298.567 200.053C297.917 200.401 297.36 200.517 296.64 200.471C295.712 200.401 295.549 200.308 295.27 199.635C294.945 198.938 294.852 198.892 293.831 198.892C292.972 198.892 292.6 198.776 292.159 198.334C291.857 198.056 291.509 197.754 291.37 197.707C291.137 197.614 289.698 195.548 289.048 194.387C288.699 193.76 289.001 192.483 289.791 191.252C290.069 190.788 290.58 189.487 290.928 188.396C291.672 185.935 292.414 184.959 293.529 184.959C293.947 184.959 294.76 185.076 295.317 185.238C296.246 185.47 296.385 185.447 297.058 184.959C297.778 184.425 297.871 184.402 299.427 184.681C300.332 184.843 301.609 184.959 302.259 184.959C303.118 184.959 303.722 185.122 304.465 185.54C305.208 185.981 305.649 186.097 306.23 186.004C306.926 185.865 309.318 186.631 312.708 188.071C313.195 188.28 313.938 188.443 314.379 188.443C315.355 188.443 317.258 189.046 317.955 189.557C318.35 189.859 318.559 190.416 318.837 192.018C319.209 194.224 319.882 196.291 322.134 202.259C323.157 204.98 323.574 206.12 324.126 207.19C324.577 208.065 325.117 208.893 326.151 210.502C330.307 217.003 330.586 217.979 330.493 225.595C330.447 229.38 330.54 231.841 330.772 233.606C330.958 234.999 331.097 236.671 331.12 237.298C331.12 238.343 331.05 238.482 330.029 239.411C328.659 240.642 325.478 242.29 322.877 243.126C321.391 243.59 320.23 243.776 318.164 243.869L315.424 244.008L313.822 245.03C312.336 245.982 307.367 247.979 304.651 248.722C302.793 249.233 295.619 249.814 293.39 249.628C289.466 249.326 286.633 248.629 282.755 247.05C281.711 246.609 280.759 246.261 280.619 246.261C280.503 246.261 280.434 247.584 280.457 249.442C280.503 252.553 280.48 252.693 279.83 253.923C278.715 256.083 277.438 257.592 273.538 261.47C267.919 267.02 264.668 271.037 264.018 273.266C263.832 273.893 263.554 275.797 263.414 277.469C263.089 281.161 263.298 282.763 264.436 285.665C265.341 287.964 265.458 288.359 265.736 290.565C266.015 292.608 266.735 294.489 267.988 296.324C269.73 298.855 270.635 300.944 271.216 303.684C271.634 305.635 272.098 306.935 273.259 309.373C274.861 312.717 275.697 315.109 276.277 318.011C276.858 320.867 277.206 327.044 277.02 331.131C276.904 334.265 276.951 335.403 277.346 338.213C277.926 342.323 278.39 352.609 278.089 354.583C277.578 357.88 276.603 359.947 273.654 363.987C271.425 367.006 269.591 369.816 268.058 372.509C267.031 374.275 266.392 375.986 266.011 378.125C282.489 391.149 308.031 383.369 313.54 361.926L382.257 94.4765Z" fill="url(#paint0_linear_335_91)"/>
</g>
<path d="M110.992 115.321H124.322V120.96H121.041V140.791H124.322V146.41H110.992V140.791H114.232V132.834H100.205V140.791H103.486V146.41H90.1765V140.791H93.3962V120.96H90.1765V115.321H103.486V120.96H100.205V127.42H114.232V120.96H110.992V115.321ZM141.323 145.262C140.844 145.563 140.407 145.823 140.01 146.041C139.614 146.246 139.217 146.41 138.821 146.533C138.424 146.67 138.014 146.766 137.591 146.821C137.167 146.889 136.702 146.923 136.196 146.923C134.924 146.923 133.783 146.752 132.771 146.41C131.773 146.055 130.925 145.576 130.228 144.975C129.545 144.36 129.018 143.642 128.649 142.822C128.28 141.988 128.095 141.085 128.095 140.115C128.095 139.13 128.28 138.221 128.649 137.387C129.032 136.553 129.579 135.842 130.29 135.254C131.001 134.653 131.869 134.188 132.894 133.86C133.933 133.518 135.116 133.347 136.442 133.347C137.413 133.347 138.295 133.402 139.088 133.511C139.894 133.607 140.639 133.73 141.323 133.88V133.224C141.323 132.691 141.22 132.233 141.015 131.85C140.81 131.453 140.523 131.132 140.154 130.886C139.785 130.626 139.341 130.442 138.821 130.332C138.301 130.209 137.734 130.148 137.119 130.148C135.834 130.148 134.699 130.278 133.715 130.537C132.744 130.783 131.807 131.146 130.905 131.624L128.936 127.646C130.331 126.689 131.787 125.957 133.304 125.451C134.836 124.946 136.456 124.693 138.165 124.693C139.491 124.693 140.715 124.843 141.836 125.144C142.97 125.431 143.941 125.909 144.748 126.579C145.554 127.236 146.183 128.097 146.634 129.163C147.099 130.23 147.332 131.529 147.332 133.06V140.791H150.182V146.41H141.323V145.262ZM136.647 142.083C137.618 142.083 138.5 141.926 139.293 141.612C140.086 141.297 140.762 140.914 141.323 140.463V137.756H136.401C136.087 137.756 135.779 137.804 135.478 137.9C135.177 137.995 134.904 138.132 134.658 138.31C134.425 138.488 134.234 138.706 134.084 138.966C133.947 139.226 133.879 139.527 133.879 139.868C133.879 140.497 134.104 141.024 134.555 141.448C135.02 141.871 135.717 142.083 136.647 142.083ZM154.55 125.164H164.271V127.01C165.146 126.313 166.131 125.759 167.224 125.349C168.318 124.939 169.446 124.734 170.608 124.734C172.221 124.734 173.602 125.021 174.751 125.595C175.913 126.156 176.822 127.017 177.478 128.179C177.929 127.673 178.435 127.215 178.996 126.805C179.57 126.381 180.178 126.019 180.821 125.718C181.464 125.404 182.133 125.164 182.831 125C183.542 124.823 184.266 124.734 185.005 124.734C187.602 124.734 189.598 125.451 190.993 126.887C192.387 128.323 193.085 130.421 193.085 133.183V140.791H196.099V146.41H186.399V134.229C186.399 133.026 186.085 132.082 185.456 131.399C184.841 130.715 183.979 130.373 182.872 130.373C182.106 130.373 181.382 130.558 180.698 130.927C180.028 131.282 179.358 131.905 178.688 132.793C178.702 132.944 178.709 133.101 178.709 133.265C178.709 133.415 178.709 133.573 178.709 133.737V140.791H181.785V146.41H172.085V134.188C172.085 133.614 171.996 133.094 171.818 132.629C171.64 132.164 171.394 131.768 171.08 131.44C170.765 131.112 170.389 130.859 169.952 130.681C169.528 130.49 169.056 130.387 168.537 130.373C167.853 130.36 167.142 130.51 166.404 130.824C165.679 131.139 164.982 131.72 164.312 132.568V140.791H167.716V146.41H154.509V140.791H157.668V130.783H154.55V125.164ZM199.011 143.047L207.809 130.619H203.687V133.819H198.335V125.164H216.956V128.856L207.707 140.914H212.424V136.833H217.797V146.41H199.011V143.047ZM235.167 145.262C234.688 145.563 234.251 145.823 233.854 146.041C233.458 146.246 233.061 146.41 232.665 146.533C232.268 146.67 231.858 146.766 231.434 146.821C231.01 146.889 230.546 146.923 230.04 146.923C228.768 146.923 227.627 146.752 226.615 146.41C225.617 146.055 224.769 145.576 224.072 144.975C223.388 144.36 222.862 143.642 222.493 142.822C222.124 141.988 221.939 141.085 221.939 140.115C221.939 139.13 222.124 138.221 222.493 137.387C222.876 136.553 223.423 135.842 224.133 135.254C224.844 134.653 225.713 134.188 226.738 133.86C227.777 133.518 228.96 133.347 230.286 133.347C231.257 133.347 232.138 133.402 232.931 133.511C233.738 133.607 234.483 133.73 235.167 133.88V133.224C235.167 132.691 235.064 132.233 234.859 131.85C234.654 131.453 234.367 131.132 233.998 130.886C233.629 130.626 233.184 130.442 232.665 130.332C232.145 130.209 231.578 130.148 230.963 130.148C229.677 130.148 228.543 130.278 227.558 130.537C226.588 130.783 225.651 131.146 224.749 131.624L222.78 127.646C224.174 126.689 225.631 125.957 227.148 125.451C228.679 124.946 230.299 124.693 232.008 124.693C233.335 124.693 234.558 124.843 235.679 125.144C236.814 125.431 237.785 125.909 238.591 126.579C239.398 127.236 240.027 128.097 240.478 129.163C240.943 130.23 241.175 131.529 241.175 133.06V140.791H244.026V146.41H235.167V145.262ZM230.491 142.083C231.462 142.083 232.343 141.926 233.136 141.612C233.929 141.297 234.606 140.914 235.167 140.463V137.756H230.245C229.93 137.756 229.623 137.804 229.322 137.9C229.021 137.995 228.748 138.132 228.502 138.31C228.269 138.488 228.078 138.706 227.927 138.966C227.791 139.226 227.722 139.527 227.722 139.868C227.722 140.497 227.948 141.024 228.399 141.448C228.864 141.871 229.561 142.083 230.491 142.083ZM279.976 146.41V141.078C279.129 142.569 278.301 143.662 277.495 144.36C276.688 145.057 275.772 145.617 274.747 146.041C273.735 146.465 272.375 146.67 270.666 146.656C269.818 146.643 268.97 146.547 268.123 146.369C267.275 146.178 266.455 145.918 265.662 145.59C264.869 145.248 264.09 144.845 263.324 144.38C262.572 143.902 261.888 143.355 261.273 142.74C259.756 141.208 258.573 139.438 257.725 137.428C256.891 135.405 256.474 133.203 256.474 130.824C256.474 129.362 256.652 127.947 257.008 126.579C257.363 125.212 257.862 123.934 258.505 122.744C259.147 121.555 259.92 120.475 260.822 119.504C261.738 118.52 262.75 117.679 263.857 116.982C264.978 116.284 266.181 115.744 267.466 115.362C268.752 114.979 270.098 114.787 271.507 114.787C273.12 114.787 274.521 115.006 275.711 115.444C276.9 115.867 278.178 116.667 279.546 117.843H284.139V124.775H277.802C277.174 123.804 276.579 123.1 276.018 122.662C275.471 122.225 274.87 121.863 274.214 121.575C273.571 121.288 272.669 121.145 271.507 121.145C270.358 121.145 269.292 121.405 268.307 121.924C267.323 122.444 266.468 123.148 265.744 124.036C265.033 124.911 264.472 125.95 264.062 127.154C263.652 128.343 263.447 129.567 263.447 130.824C263.447 132.069 263.632 133.251 264.001 134.372C264.37 135.493 264.93 136.505 265.682 137.407C266.434 138.296 267.309 138.98 268.307 139.458C269.305 139.937 270.372 140.176 271.507 140.176C272.956 140.176 274.22 139.752 275.3 138.905C276.381 138.057 277.16 136.902 277.638 135.439H271.712V129.82H286.108V146.41H279.976ZM289.717 125.164H300.135V130.783H298.495L301.55 138.74L304.688 130.783H302.863V125.164H313.281V130.783H310.964L302.74 150.45H306.39V156.07H293.204V150.45H296.916L298.515 146.41L291.871 130.783H289.717V125.164ZM315.824 125.164H325.545V127.01C326.42 126.313 327.404 125.759 328.498 125.349C329.591 124.939 330.719 124.734 331.882 124.734C333.495 124.734 334.876 125.021 336.024 125.595C337.186 126.156 338.095 127.017 338.752 128.179C339.203 127.673 339.709 127.215 340.269 126.805C340.843 126.381 341.452 126.019 342.094 125.718C342.737 125.404 343.407 125.164 344.104 125C344.815 124.823 345.54 124.734 346.278 124.734C348.876 124.734 350.872 125.451 352.266 126.887C353.661 128.323 354.358 130.421 354.358 133.183V140.791H357.373V146.41H347.673V134.229C347.673 133.026 347.358 132.082 346.729 131.399C346.114 130.715 345.253 130.373 344.145 130.373C343.38 130.373 342.655 130.558 341.971 130.927C341.301 131.282 340.632 131.905 339.962 132.793C339.975 132.944 339.982 133.101 339.982 133.265C339.982 133.415 339.982 133.573 339.982 133.737V140.791H343.058V146.41H333.358V134.188C333.358 133.614 333.269 133.094 333.091 132.629C332.914 132.164 332.668 131.768 332.353 131.44C332.039 131.112 331.663 130.859 331.225 130.681C330.801 130.49 330.33 130.387 329.81 130.373C329.127 130.36 328.416 130.51 327.677 130.824C326.953 131.139 326.256 131.72 325.586 132.568V140.791H328.99V146.41H315.783V140.791H318.941V130.783H315.824V125.164Z" fill="black"/>
<defs>
<filter id="filter0_d_335_91" x="0" y="0" width="453.223" height="447.479" filterUnits="userSpaceOnUse" color-interpolation-filters="sRGB">
<feFlood flood-opacity="0" result="BackgroundImageFix"/>
<feColorMatrix in="SourceAlpha" type="matrix" values="0 0 0 0 0 0 0 0 0 0 0 0 0 0 0 0 0 0 127 0" result="hardAlpha"/>
<feOffset dx="10" dy="3"/>
<feGaussianBlur stdDeviation="30"/>
<feComposite in2="hardAlpha" operator="out"/>
<feColorMatrix type="matrix" values="0 0 0 0 0 0 0 0 0 0 0 0 0 0 0 0 0 0 1 0"/>
<feBlend mode="normal" in2="BackgroundImageFix" result="effect1_dropShadow_335_91"/>
<feBlend mode="normal" in="SourceGraphic" in2="effect1_dropShadow_335_91" result="shape"/>
</filter>
<linearGradient id="paint0_linear_335_91" x1="393.497" y1="50.7276" x2="82.1195" y2="331.093" gradientUnits="userSpaceOnUse">
<stop offset="0.9999" stop-color="#E0FE10"/>
<stop offset="1" stop-color="#1C2126"/>
</linearGradient>
</defs>
</svg>
